<mxfile host="app.diagrams.net" modified="2023-11-23T23:35:26.192Z" agent="Mozilla/5.0 (Windows NT 10.0; Win64; x64) AppleWebKit/537.36 (KHTML, like Gecko) Chrome/119.0.0.0 Safari/537.36" etag="bQiwi3wFLpjGNQnikx6x" version="22.1.3" type="device">
  <diagram name="Page-1" id="LmmGbcZ1a9gBJJPqgJk_">
    <mxGraphModel dx="3984" dy="4058" grid="1" gridSize="10" guides="1" tooltips="1" connect="1" arrows="1" fold="1" page="1" pageScale="1" pageWidth="850" pageHeight="1100" math="0" shadow="0">
      <root>
        <mxCell id="0" />
        <mxCell id="1" parent="0" />
        <mxCell id="opxTeXphDSFUgiKrMBCA-52" value="" style="rounded=1;whiteSpace=wrap;html=1;fillColor=#e1d5e7;strokeColor=#9673a6;" parent="1" vertex="1">
          <mxGeometry x="-2005" y="-2130" width="1490" height="840" as="geometry" />
        </mxCell>
        <mxCell id="opxTeXphDSFUgiKrMBCA-73" value="" style="rounded=1;whiteSpace=wrap;html=1;fillColor=#fff2cc;strokeColor=#d6b656;" parent="1" vertex="1">
          <mxGeometry x="-1170" y="-2130" width="590" height="370" as="geometry" />
        </mxCell>
        <mxCell id="opxTeXphDSFUgiKrMBCA-71" value="" style="rounded=1;whiteSpace=wrap;html=1;fillColor=#f5f5f5;fontColor=#333333;strokeColor=#666666;" parent="1" vertex="1">
          <mxGeometry x="-1450" y="-1250" width="240" height="430" as="geometry" />
        </mxCell>
        <mxCell id="opxTeXphDSFUgiKrMBCA-58" value="" style="rounded=1;whiteSpace=wrap;html=1;fillColor=#f5f5f5;fontColor=#333333;strokeColor=#666666;" parent="1" vertex="1">
          <mxGeometry x="-1496.5" y="-2210" width="526.5" height="60" as="geometry" />
        </mxCell>
        <mxCell id="opxTeXphDSFUgiKrMBCA-1" value="WAF&lt;br style=&quot;font-size: 18px;&quot;&gt;&lt;font style=&quot;font-size: 18px;&quot;&gt;&lt;br style=&quot;font-size: 18px;&quot;&gt;&lt;/font&gt;" style="outlineConnect=0;dashed=0;verticalLabelPosition=bottom;verticalAlign=top;align=center;html=1;shape=mxgraph.aws3.waf;fillColor=#99FFFF;gradientColor=none;fontSize=18;fontFamily=Times New Roman;horizontal=1;shadow=1;" parent="1" vertex="1">
          <mxGeometry x="-1670" y="-1950" width="90" height="73" as="geometry" />
        </mxCell>
        <mxCell id="opxTeXphDSFUgiKrMBCA-2" value="CLOUD FRONT" style="outlineConnect=0;dashed=0;verticalLabelPosition=bottom;verticalAlign=top;align=center;html=1;shape=mxgraph.aws3.cloudfront;fillColor=#F58536;gradientColor=none;fontSize=18;fontFamily=Times New Roman;" parent="1" vertex="1">
          <mxGeometry x="-1660" y="-1790" width="70" height="80" as="geometry" />
        </mxCell>
        <mxCell id="opxTeXphDSFUgiKrMBCA-5" value="AWS S3 FRONTEND" style="outlineConnect=0;dashed=0;verticalLabelPosition=bottom;verticalAlign=top;align=center;html=1;shape=mxgraph.aws3.s3;fillColor=#E05243;gradientColor=none;fontSize=18;fontFamily=Times New Roman;shadow=1;" parent="1" vertex="1">
          <mxGeometry x="-1496.5" y="-1796.5" width="76.5" height="93" as="geometry" />
        </mxCell>
        <mxCell id="opxTeXphDSFUgiKrMBCA-6" value="" style="endArrow=classic;html=1;rounded=0;entryX=0;entryY=0.5;entryDx=0;entryDy=0;entryPerimeter=0;exitX=1;exitY=0.5;exitDx=0;exitDy=0;exitPerimeter=0;" parent="1" source="opxTeXphDSFUgiKrMBCA-2" target="opxTeXphDSFUgiKrMBCA-5" edge="1">
          <mxGeometry width="50" height="50" relative="1" as="geometry">
            <mxPoint x="-1460" y="-1510" as="sourcePoint" />
            <mxPoint x="-1410" y="-1560" as="targetPoint" />
          </mxGeometry>
        </mxCell>
        <mxCell id="opxTeXphDSFUgiKrMBCA-7" value="&lt;font style=&quot;font-size: 18px;&quot; face=&quot;Times New Roman&quot;&gt;USER&lt;/font&gt;" style="html=1;verticalLabelPosition=bottom;align=center;labelBackgroundColor=none;verticalAlign=top;strokeWidth=2;strokeColor=#0080F0;shadow=0;dashed=0;shape=mxgraph.ios7.icons.user;" parent="1" vertex="1">
          <mxGeometry x="-1850" y="-1958.5" width="70" height="70" as="geometry" />
        </mxCell>
        <mxCell id="opxTeXphDSFUgiKrMBCA-8" value="" style="endArrow=classic;html=1;rounded=0;entryX=0;entryY=0.56;entryDx=0;entryDy=0;entryPerimeter=0;exitX=1.03;exitY=0.47;exitDx=0;exitDy=0;exitPerimeter=0;" parent="1" source="opxTeXphDSFUgiKrMBCA-7" target="opxTeXphDSFUgiKrMBCA-1" edge="1">
          <mxGeometry width="50" height="50" relative="1" as="geometry">
            <mxPoint x="-1725" y="-1987.0029357798167" as="sourcePoint" />
            <mxPoint x="-1890" y="-2046.039633027523" as="targetPoint" />
          </mxGeometry>
        </mxCell>
        <mxCell id="opxTeXphDSFUgiKrMBCA-9" value="AWS SQS&lt;br style=&quot;font-size: 18px;&quot;&gt;" style="outlineConnect=0;dashed=0;verticalLabelPosition=bottom;verticalAlign=top;align=center;html=1;shape=mxgraph.aws3.sqs;fillColor=#D9A741;gradientColor=none;fontSize=18;fontFamily=Times New Roman;shadow=1;" parent="1" vertex="1">
          <mxGeometry x="-1310" y="-1796.5" width="76.5" height="93" as="geometry" />
        </mxCell>
        <mxCell id="opxTeXphDSFUgiKrMBCA-14" value="" style="endArrow=classic;html=1;rounded=0;entryX=0;entryY=0.5;entryDx=0;entryDy=0;entryPerimeter=0;exitX=1;exitY=0.5;exitDx=0;exitDy=0;exitPerimeter=0;" parent="1" source="opxTeXphDSFUgiKrMBCA-5" target="opxTeXphDSFUgiKrMBCA-9" edge="1">
          <mxGeometry width="50" height="50" relative="1" as="geometry">
            <mxPoint x="-1450" y="-1550" as="sourcePoint" />
            <mxPoint x="-1400" y="-1600" as="targetPoint" />
          </mxGeometry>
        </mxCell>
        <mxCell id="opxTeXphDSFUgiKrMBCA-15" value="ECS BACKEND" style="outlineConnect=0;dashed=0;verticalLabelPosition=bottom;verticalAlign=top;align=center;html=1;shape=mxgraph.aws3.ecs;fillColor=#F58534;gradientColor=none;fontFamily=Times New Roman;fontSize=18;shadow=1;" parent="1" vertex="1">
          <mxGeometry x="-1307.75" y="-1600" width="72" height="67.5" as="geometry" />
        </mxCell>
        <mxCell id="opxTeXphDSFUgiKrMBCA-16" value="" style="endArrow=classic;html=1;rounded=0;entryX=0.5;entryY=0.095;entryDx=0;entryDy=0;entryPerimeter=0;exitX=0.5;exitY=1;exitDx=0;exitDy=0;exitPerimeter=0;" parent="1" source="opxTeXphDSFUgiKrMBCA-9" target="opxTeXphDSFUgiKrMBCA-15" edge="1">
          <mxGeometry width="50" height="50" relative="1" as="geometry">
            <mxPoint x="-1460" y="-1310" as="sourcePoint" />
            <mxPoint x="-1410" y="-1360" as="targetPoint" />
          </mxGeometry>
        </mxCell>
        <mxCell id="opxTeXphDSFUgiKrMBCA-17" value="" style="endArrow=classic;html=1;rounded=0;entryX=0.5;entryY=0;entryDx=0;entryDy=0;entryPerimeter=0;exitX=0.5;exitY=1;exitDx=0;exitDy=0;exitPerimeter=0;" parent="1" source="opxTeXphDSFUgiKrMBCA-1" target="opxTeXphDSFUgiKrMBCA-2" edge="1">
          <mxGeometry width="50" height="50" relative="1" as="geometry">
            <mxPoint x="-1450" y="-1510" as="sourcePoint" />
            <mxPoint x="-1400" y="-1560" as="targetPoint" />
          </mxGeometry>
        </mxCell>
        <mxCell id="opxTeXphDSFUgiKrMBCA-18" value="AWS RDS MYSQL" style="outlineConnect=0;dashed=0;verticalLabelPosition=bottom;verticalAlign=top;align=center;html=1;shape=mxgraph.aws3.rds;fillColor=#2E73B8;gradientColor=none;fontFamily=Times New Roman;fontSize=18;shadow=1;" parent="1" vertex="1">
          <mxGeometry x="-1307.75" y="-1430" width="72" height="81" as="geometry" />
        </mxCell>
        <mxCell id="opxTeXphDSFUgiKrMBCA-19" value="" style="endArrow=classic;html=1;rounded=0;entryX=0.5;entryY=0;entryDx=0;entryDy=0;entryPerimeter=0;exitX=0.5;exitY=0.905;exitDx=0;exitDy=0;exitPerimeter=0;" parent="1" source="opxTeXphDSFUgiKrMBCA-15" target="opxTeXphDSFUgiKrMBCA-18" edge="1">
          <mxGeometry width="50" height="50" relative="1" as="geometry">
            <mxPoint x="-1410" y="-1410" as="sourcePoint" />
            <mxPoint x="-1360" y="-1460" as="targetPoint" />
          </mxGeometry>
        </mxCell>
        <mxCell id="opxTeXphDSFUgiKrMBCA-33" style="edgeStyle=orthogonalEdgeStyle;rounded=0;orthogonalLoop=1;jettySize=auto;html=1;curved=1;entryX=0.5;entryY=0;entryDx=0;entryDy=0;entryPerimeter=0;" parent="1" source="opxTeXphDSFUgiKrMBCA-20" target="opxTeXphDSFUgiKrMBCA-1" edge="1">
          <mxGeometry relative="1" as="geometry">
            <mxPoint x="-1580" y="-1960" as="targetPoint" />
          </mxGeometry>
        </mxCell>
        <mxCell id="opxTeXphDSFUgiKrMBCA-36" style="edgeStyle=orthogonalEdgeStyle;rounded=0;orthogonalLoop=1;jettySize=auto;html=1;curved=1;entryX=0.5;entryY=0;entryDx=0;entryDy=0;entryPerimeter=0;exitX=0.1;exitY=0.5;exitDx=0;exitDy=0;exitPerimeter=0;" parent="1" source="opxTeXphDSFUgiKrMBCA-20" target="opxTeXphDSFUgiKrMBCA-5" edge="1">
          <mxGeometry relative="1" as="geometry">
            <mxPoint x="-1230" y="-2030" as="sourcePoint" />
            <mxPoint x="-1430.0027272727275" y="-1750.05" as="targetPoint" />
          </mxGeometry>
        </mxCell>
        <mxCell id="opxTeXphDSFUgiKrMBCA-40" style="edgeStyle=orthogonalEdgeStyle;rounded=0;orthogonalLoop=1;jettySize=auto;html=1;curved=1;" parent="1" source="opxTeXphDSFUgiKrMBCA-20" target="opxTeXphDSFUgiKrMBCA-9" edge="1">
          <mxGeometry relative="1" as="geometry" />
        </mxCell>
        <mxCell id="opxTeXphDSFUgiKrMBCA-42" style="edgeStyle=orthogonalEdgeStyle;rounded=0;orthogonalLoop=1;jettySize=auto;html=1;curved=1;entryX=1;entryY=0.76;entryDx=0;entryDy=0;entryPerimeter=0;" parent="1" source="opxTeXphDSFUgiKrMBCA-20" target="opxTeXphDSFUgiKrMBCA-15" edge="1">
          <mxGeometry relative="1" as="geometry">
            <Array as="points">
              <mxPoint x="-989" y="-1549" />
            </Array>
          </mxGeometry>
        </mxCell>
        <mxCell id="opxTeXphDSFUgiKrMBCA-38" style="edgeStyle=orthogonalEdgeStyle;rounded=0;orthogonalLoop=1;jettySize=auto;html=1;entryX=1;entryY=0.21;entryDx=0;entryDy=0;entryPerimeter=0;curved=1;exitX=0.1;exitY=0.5;exitDx=0;exitDy=0;exitPerimeter=0;" parent="1" source="opxTeXphDSFUgiKrMBCA-20" target="opxTeXphDSFUgiKrMBCA-2" edge="1">
          <mxGeometry relative="1" as="geometry">
            <Array as="points">
              <mxPoint x="-1052" y="-2033" />
              <mxPoint x="-1510" y="-2033" />
              <mxPoint x="-1510" y="-1773" />
            </Array>
          </mxGeometry>
        </mxCell>
        <mxCell id="opxTeXphDSFUgiKrMBCA-44" style="edgeStyle=orthogonalEdgeStyle;rounded=0;orthogonalLoop=1;jettySize=auto;html=1;entryX=1;entryY=0.78;entryDx=0;entryDy=0;entryPerimeter=0;curved=1;exitX=0.1;exitY=0.5;exitDx=0;exitDy=0;exitPerimeter=0;" parent="1" source="opxTeXphDSFUgiKrMBCA-20" target="opxTeXphDSFUgiKrMBCA-18" edge="1">
          <mxGeometry relative="1" as="geometry">
            <Array as="points">
              <mxPoint x="-1070" y="-2033" />
              <mxPoint x="-1070" y="-1367" />
            </Array>
          </mxGeometry>
        </mxCell>
        <mxCell id="opxTeXphDSFUgiKrMBCA-45" value="&lt;font face=&quot;Times New Roman&quot; style=&quot;font-size: 18px;&quot;&gt;GRAFANA&lt;/font&gt;" style="points=[[0,0,0],[0.25,0,0],[0.5,0,0],[0.75,0,0],[1,0,0],[0,1,0],[0.25,1,0],[0.5,1,0],[0.75,1,0],[1,1,0],[0,0.25,0],[0,0.5,0],[0,0.75,0],[1,0.25,0],[1,0.5,0],[1,0.75,0]];points=[[0,0,0],[0.25,0,0],[0.5,0,0],[0.75,0,0],[1,0,0],[0,1,0],[0.25,1,0],[0.5,1,0],[0.75,1,0],[1,1,0],[0,0.25,0],[0,0.5,0],[0,0.75,0],[1,0.25,0],[1,0.5,0],[1,0.75,0]];outlineConnect=0;fontColor=#232F3E;fillColor=#E7157B;strokeColor=#ffffff;dashed=0;verticalLabelPosition=bottom;verticalAlign=top;align=center;html=1;fontSize=12;fontStyle=0;aspect=fixed;shape=mxgraph.aws4.resourceIcon;resIcon=mxgraph.aws4.managed_service_for_grafana;shadow=1;" parent="1" vertex="1">
          <mxGeometry x="-720" y="-2110" width="78" height="78" as="geometry" />
        </mxCell>
        <mxCell id="opxTeXphDSFUgiKrMBCA-46" style="edgeStyle=orthogonalEdgeStyle;rounded=0;orthogonalLoop=1;jettySize=auto;html=1;entryX=0;entryY=0.5;entryDx=0;entryDy=0;entryPerimeter=0;curved=1;" parent="1" source="opxTeXphDSFUgiKrMBCA-20" target="opxTeXphDSFUgiKrMBCA-45" edge="1">
          <mxGeometry relative="1" as="geometry" />
        </mxCell>
        <mxCell id="opxTeXphDSFUgiKrMBCA-47" value="&lt;font style=&quot;font-size: 18px;&quot;&gt;CLOUDWATCH ALERTS&lt;/font&gt;" style="outlineConnect=0;dashed=0;verticalLabelPosition=bottom;verticalAlign=top;align=center;html=1;shape=mxgraph.aws3.cloudwatch;fillColor=#FF99CC;gradientColor=none;fontFamily=Times New Roman;shadow=1;" parent="1" vertex="1">
          <mxGeometry x="-750" y="-1970" width="82.5" height="93" as="geometry" />
        </mxCell>
        <mxCell id="opxTeXphDSFUgiKrMBCA-48" style="edgeStyle=orthogonalEdgeStyle;rounded=0;orthogonalLoop=1;jettySize=auto;html=1;curved=1;entryX=0.35;entryY=0;entryDx=0;entryDy=0;entryPerimeter=0;" parent="1" source="opxTeXphDSFUgiKrMBCA-20" target="opxTeXphDSFUgiKrMBCA-47" edge="1">
          <mxGeometry relative="1" as="geometry">
            <mxPoint x="-1140" y="-2033" as="sourcePoint" />
            <mxPoint x="-740" y="-1980" as="targetPoint" />
            <Array as="points" />
          </mxGeometry>
        </mxCell>
        <mxCell id="opxTeXphDSFUgiKrMBCA-53" style="edgeStyle=orthogonalEdgeStyle;rounded=0;orthogonalLoop=1;jettySize=auto;html=1;entryX=0.25;entryY=1;entryDx=0;entryDy=0;strokeColor=#000000;" parent="1" source="opxTeXphDSFUgiKrMBCA-49" target="opxTeXphDSFUgiKrMBCA-52" edge="1">
          <mxGeometry relative="1" as="geometry" />
        </mxCell>
        <mxCell id="opxTeXphDSFUgiKrMBCA-49" value="&lt;font style=&quot;font-size: 18px;&quot;&gt;TERRAFORM&lt;/font&gt;" style="ellipse;whiteSpace=wrap;html=1;fillColor=#d5e8d4;strokeColor=#82b366;fontFamily=Times New Roman;shadow=0;fontSize=18;fillStyle=auto;noLabel=0;" parent="1" vertex="1">
          <mxGeometry x="-1770" y="-1230" width="160" height="60" as="geometry" />
        </mxCell>
        <mxCell id="opxTeXphDSFUgiKrMBCA-51" value="ARQUITETURA API CADASTRO DE LEADS" style="text;html=1;align=center;verticalAlign=middle;resizable=0;points=[];autosize=1;strokeColor=none;fillColor=none;fontSize=18;fontStyle=5;fontFamily=Times New Roman;" parent="1" vertex="1">
          <mxGeometry x="-1435" y="-2200" width="390" height="40" as="geometry" />
        </mxCell>
        <mxCell id="opxTeXphDSFUgiKrMBCA-56" style="edgeStyle=orthogonalEdgeStyle;rounded=0;orthogonalLoop=1;jettySize=auto;html=1;entryX=0.5;entryY=1;entryDx=0;entryDy=0;strokeColor=#000000;" parent="1" source="opxTeXphDSFUgiKrMBCA-54" target="opxTeXphDSFUgiKrMBCA-49" edge="1">
          <mxGeometry relative="1" as="geometry" />
        </mxCell>
        <mxCell id="opxTeXphDSFUgiKrMBCA-54" value="&lt;font style=&quot;font-size: 18px;&quot;&gt;GITHUB ACTIONS&lt;/font&gt;" style="ellipse;whiteSpace=wrap;html=1;fillColor=#dae8fc;strokeColor=#6c8ebf;fontFamily=Times New Roman;shadow=0;fontSize=18;fillStyle=auto;noLabel=0;" parent="1" vertex="1">
          <mxGeometry x="-1770" y="-1110" width="160" height="60" as="geometry" />
        </mxCell>
        <mxCell id="opxTeXphDSFUgiKrMBCA-70" style="edgeStyle=orthogonalEdgeStyle;rounded=0;orthogonalLoop=1;jettySize=auto;html=1;strokeColor=#000000;" parent="1" source="opxTeXphDSFUgiKrMBCA-63" target="opxTeXphDSFUgiKrMBCA-52" edge="1">
          <mxGeometry relative="1" as="geometry" />
        </mxCell>
        <mxCell id="opxTeXphDSFUgiKrMBCA-63" value="&lt;font style=&quot;font-size: 18px;&quot;&gt;TERRAFORM&lt;br&gt;ECS / EKS(HELML)&lt;br&gt;&lt;/font&gt;" style="ellipse;whiteSpace=wrap;html=1;fillColor=#d5e8d4;strokeColor=#82b366;fontFamily=Times New Roman;shadow=0;fontSize=18;fillStyle=auto;noLabel=0;" parent="1" vertex="1">
          <mxGeometry x="-1425.75" y="-1230" width="190" height="70" as="geometry" />
        </mxCell>
        <mxCell id="opxTeXphDSFUgiKrMBCA-68" style="edgeStyle=orthogonalEdgeStyle;rounded=0;orthogonalLoop=1;jettySize=auto;html=1;entryX=0.5;entryY=1;entryDx=0;entryDy=0;" parent="1" source="opxTeXphDSFUgiKrMBCA-65" target="opxTeXphDSFUgiKrMBCA-66" edge="1">
          <mxGeometry relative="1" as="geometry" />
        </mxCell>
        <mxCell id="opxTeXphDSFUgiKrMBCA-65" value="&lt;font style=&quot;font-size: 18px;&quot;&gt;GITHUB ACTIONS&lt;/font&gt;" style="ellipse;whiteSpace=wrap;html=1;fillColor=#dae8fc;strokeColor=#6c8ebf;fontFamily=Times New Roman;shadow=0;fontSize=18;fillStyle=auto;noLabel=0;" parent="1" vertex="1">
          <mxGeometry x="-1410" y="-960" width="160" height="60" as="geometry" />
        </mxCell>
        <mxCell id="opxTeXphDSFUgiKrMBCA-69" style="edgeStyle=orthogonalEdgeStyle;rounded=0;orthogonalLoop=1;jettySize=auto;html=1;entryX=0.5;entryY=1;entryDx=0;entryDy=0;" parent="1" source="opxTeXphDSFUgiKrMBCA-66" target="opxTeXphDSFUgiKrMBCA-63" edge="1">
          <mxGeometry relative="1" as="geometry" />
        </mxCell>
        <mxCell id="opxTeXphDSFUgiKrMBCA-66" value="&lt;font style=&quot;font-size: 18px;&quot;&gt;BUILD DA IMAGEM&lt;/font&gt;" style="ellipse;whiteSpace=wrap;html=1;fillColor=#f8cecc;strokeColor=#b85450;fontFamily=Times New Roman;shadow=0;fontSize=18;fillStyle=auto;noLabel=0;" parent="1" vertex="1">
          <mxGeometry x="-1410" y="-1090" width="160" height="60" as="geometry" />
        </mxCell>
        <mxCell id="opxTeXphDSFUgiKrMBCA-72" value="API" style="text;html=1;align=center;verticalAlign=middle;resizable=0;points=[];autosize=1;strokeColor=none;fillColor=none;fontSize=18;fontFamily=Times New Roman;fontStyle=1" parent="1" vertex="1">
          <mxGeometry x="-1355" y="-875" width="50" height="40" as="geometry" />
        </mxCell>
        <mxCell id="opxTeXphDSFUgiKrMBCA-74" value="OBSERVABILIDADE&lt;br style=&quot;font-size: 18px;&quot;&gt;" style="text;html=1;align=center;verticalAlign=middle;resizable=0;points=[];autosize=1;strokeColor=none;fillColor=none;fontFamily=Times New Roman;fontStyle=1;fontSize=18;" parent="1" vertex="1">
          <mxGeometry x="-951" y="-1815" width="200" height="40" as="geometry" />
        </mxCell>
        <mxCell id="opxTeXphDSFUgiKrMBCA-20" value="CLOUD WATCH" style="outlineConnect=0;dashed=0;verticalLabelPosition=bottom;verticalAlign=top;align=center;html=1;shape=mxgraph.aws3.cloudwatch;fillColor=#759C3E;gradientColor=none;fontSize=18;fontFamily=Times New Roman;shadow=1;" parent="1" vertex="1">
          <mxGeometry x="-1030" y="-2080" width="82.5" height="93" as="geometry" />
        </mxCell>
        <mxCell id="opxTeXphDSFUgiKrMBCA-79" style="edgeStyle=orthogonalEdgeStyle;rounded=0;orthogonalLoop=1;jettySize=auto;html=1;curved=1;entryX=1;entryY=0.76;entryDx=0;entryDy=0;entryPerimeter=0;" parent="1" source="opxTeXphDSFUgiKrMBCA-78" target="opxTeXphDSFUgiKrMBCA-15" edge="1">
          <mxGeometry relative="1" as="geometry">
            <Array as="points">
              <mxPoint x="-1110" y="-1893" />
              <mxPoint x="-1110" y="-1549" />
            </Array>
          </mxGeometry>
        </mxCell>
        <mxCell id="opxTeXphDSFUgiKrMBCA-78" value="&lt;font color=&quot;#000000&quot;&gt;CLOUD WATCH LOGS&lt;/font&gt;" style="outlineConnect=0;dashed=0;verticalLabelPosition=bottom;verticalAlign=top;align=center;html=1;shape=mxgraph.aws3.cloudwatch;fillColor=#1ba1e2;fontSize=18;fontFamily=Times New Roman;shadow=1;strokeColor=#006EAF;fontColor=#ffffff;" parent="1" vertex="1">
          <mxGeometry x="-989" y="-1940" width="82.5" height="93" as="geometry" />
        </mxCell>
        <mxCell id="opxTeXphDSFUgiKrMBCA-84" style="edgeStyle=orthogonalEdgeStyle;rounded=0;orthogonalLoop=1;jettySize=auto;html=1;curved=1;exitX=0.25;exitY=1;exitDx=0;exitDy=0;exitPerimeter=0;" parent="1" source="opxTeXphDSFUgiKrMBCA-80" target="opxTeXphDSFUgiKrMBCA-15" edge="1">
          <mxGeometry relative="1" as="geometry">
            <mxPoint x="-600.5" y="-1968" as="sourcePoint" />
            <mxPoint x="-1130" y="-1550" as="targetPoint" />
            <Array as="points">
              <mxPoint x="-880" y="-1932" />
              <mxPoint x="-880" y="-1550" />
            </Array>
          </mxGeometry>
        </mxCell>
        <mxCell id="opxTeXphDSFUgiKrMBCA-80" value="X-RAY" style="sketch=0;points=[[0,0,0],[0.25,0,0],[0.5,0,0],[0.75,0,0],[1,0,0],[0,1,0],[0.25,1,0],[0.5,1,0],[0.75,1,0],[1,1,0],[0,0.25,0],[0,0.5,0],[0,0.75,0],[1,0.25,0],[1,0.5,0],[1,0.75,0]];outlineConnect=0;fontColor=#232F3E;fillColor=#C925D1;strokeColor=#ffffff;dashed=0;verticalLabelPosition=bottom;verticalAlign=top;align=center;html=1;fontSize=12;fontStyle=0;aspect=fixed;shape=mxgraph.aws4.resourceIcon;resIcon=mxgraph.aws4.xray;" parent="1" vertex="1">
          <mxGeometry x="-890" y="-2010" width="78" height="78" as="geometry" />
        </mxCell>
      </root>
    </mxGraphModel>
  </diagram>
</mxfile>
